G04 #@! TF.GenerationSoftware,KiCad,Pcbnew,5.1.10-88a1d61d58~90~ubuntu20.04.1*
G04 #@! TF.CreationDate,2021-08-21T22:57:00+03:00*
G04 #@! TF.ProjectId,ErgoDoxTW,4572676f-446f-4785-9457-2e6b69636164,rev?*
G04 #@! TF.SameCoordinates,Original*
G04 #@! TF.FileFunction,Other,ECO1*
%FSLAX46Y46*%
G04 Gerber Fmt 4.6, Leading zero omitted, Abs format (unit mm)*
G04 Created by KiCad (PCBNEW 5.1.10-88a1d61d58~90~ubuntu20.04.1) date 2021-08-21 22:57:00*
%MOMM*%
%LPD*%
G01*
G04 APERTURE LIST*
%ADD10C,0.150000*%
G04 APERTURE END LIST*
D10*
X140478580Y-117208859D02*
X140678580Y-114233859D01*
X157403580Y-116908859D02*
X157453580Y-119558859D01*
X154253580Y-116908859D02*
X157403580Y-116908859D01*
X143703580Y-114208859D02*
X144303580Y-113408859D01*
X150278580Y-119333859D02*
X149078580Y-118383859D01*
X157453580Y-119558859D02*
X153678580Y-119383859D01*
X143753580Y-117158859D02*
X140478580Y-117208859D01*
X144303580Y-113408859D02*
X152403580Y-113408859D01*
X152403580Y-113408859D02*
X154253580Y-116908859D01*
X153678580Y-119383859D02*
X152178580Y-119933859D01*
X149078580Y-118383859D02*
X143753580Y-117158859D01*
X152178580Y-119933859D02*
X150278580Y-119333859D01*
X140678580Y-114233859D02*
X143703580Y-114208859D01*
X68528580Y-96583857D02*
X65553580Y-96383859D01*
X68228580Y-79658859D02*
X70878581Y-79608858D01*
X68228580Y-82808859D02*
X68228580Y-79658859D01*
X65528580Y-93358857D02*
X64728582Y-92758858D01*
X70653578Y-86783856D02*
X69703579Y-87983859D01*
X70878581Y-79608858D02*
X70703581Y-83383859D01*
X68478581Y-93308861D02*
X68528580Y-96583857D01*
X64728582Y-92758858D02*
X64728578Y-84658859D01*
X64728578Y-84658859D02*
X68228580Y-82808859D01*
X70703581Y-83383859D02*
X71253579Y-84883856D01*
X69703579Y-87983859D02*
X68478581Y-93308861D01*
X71253579Y-84883856D02*
X70653578Y-86783856D01*
X65553580Y-96383859D02*
X65528580Y-93358857D01*
X68653580Y-125058857D02*
X65678580Y-124858859D01*
X68353580Y-108133859D02*
X71003581Y-108083858D01*
X68353580Y-111283859D02*
X68353580Y-108133859D01*
X65653580Y-121833857D02*
X64853582Y-121233858D01*
X70778578Y-115258856D02*
X69828579Y-116458859D01*
X71003581Y-108083858D02*
X70828581Y-111858859D01*
X68603581Y-121783861D02*
X68653580Y-125058857D01*
X64853582Y-121233858D02*
X64853578Y-113133859D01*
X64853578Y-113133859D02*
X68353580Y-111283859D01*
X70828581Y-111858859D02*
X71378579Y-113358856D01*
X69828579Y-116458859D02*
X68603581Y-121783861D01*
X71378579Y-113358856D02*
X70778578Y-115258856D01*
X65678580Y-124858859D02*
X65653580Y-121833857D01*
X81159368Y-161407829D02*
X78378580Y-162483859D01*
X73734663Y-146195357D02*
X76115248Y-145030102D01*
X75065910Y-149050227D02*
X73734663Y-146195357D01*
X77077501Y-159752842D02*
X76098886Y-159547152D01*
X78943611Y-151627949D02*
X78589763Y-153117008D01*
X76115248Y-145030102D02*
X77552029Y-148525373D01*
X79729981Y-158460806D02*
X81159368Y-161407829D01*
X76098886Y-159547152D02*
X72675675Y-152206061D01*
X72675675Y-152206061D02*
X75065910Y-149050227D01*
X77552029Y-148525373D02*
X78684422Y-149652393D01*
X78589763Y-153117008D02*
X79729981Y-158460806D01*
X78684422Y-149652393D02*
X78943611Y-151627949D01*
X78378580Y-162483859D02*
X77077501Y-159752842D01*
X63934368Y-169582829D02*
X61153580Y-170658859D01*
X56509663Y-154370357D02*
X58890248Y-153205102D01*
X57840910Y-157225227D02*
X56509663Y-154370357D01*
X59852501Y-167927842D02*
X58873886Y-167722152D01*
X61718611Y-159802949D02*
X61364763Y-161292008D01*
X58890248Y-153205102D02*
X60327029Y-156700373D01*
X62504981Y-166635806D02*
X63934368Y-169582829D01*
X58873886Y-167722152D02*
X55450675Y-160381061D01*
X55450675Y-160381061D02*
X57840910Y-157225227D01*
X60327029Y-156700373D02*
X61459422Y-157827393D01*
X61364763Y-161292008D02*
X62504981Y-166635806D01*
X61459422Y-157827393D02*
X61718611Y-159802949D01*
X61153580Y-170658859D02*
X59852501Y-167927842D01*
X41829608Y-177739648D02*
X40753580Y-174958859D01*
X57042082Y-170314942D02*
X58207335Y-172695527D01*
X54187212Y-171646189D02*
X57042082Y-170314942D01*
X43484596Y-173657781D02*
X43690286Y-172679164D01*
X51609488Y-175523893D02*
X50120431Y-175170043D01*
X58207335Y-172695527D02*
X54712065Y-174132307D01*
X44776635Y-176310258D02*
X41829608Y-177739648D01*
X43690286Y-172679164D02*
X51031379Y-169255956D01*
X51031379Y-169255956D02*
X54187212Y-171646189D01*
X54712065Y-174132307D02*
X53585044Y-175264703D01*
X50120431Y-175170043D02*
X44776635Y-176310258D01*
X53585044Y-175264703D02*
X51609488Y-175523893D01*
X40753580Y-174958859D02*
X43484596Y-173657781D01*
X33954608Y-160414648D02*
X32878580Y-157633859D01*
X49167082Y-152989942D02*
X50332335Y-155370527D01*
X46312212Y-154321189D02*
X49167082Y-152989942D01*
X35609596Y-156332781D02*
X35815286Y-155354164D01*
X43734488Y-158198893D02*
X42245431Y-157845043D01*
X50332335Y-155370527D02*
X46837065Y-156807307D01*
X36901635Y-158985258D02*
X33954608Y-160414648D01*
X35815286Y-155354164D02*
X43156379Y-151930956D01*
X43156379Y-151930956D02*
X46312212Y-154321189D01*
X46837065Y-156807307D02*
X45710044Y-157939703D01*
X42245431Y-157845043D02*
X36901635Y-158985258D01*
X45710044Y-157939703D02*
X43734488Y-158198893D01*
X32878580Y-157633859D02*
X35609596Y-156332781D01*
X25779608Y-143139648D02*
X24703580Y-140358859D01*
X40992082Y-135714942D02*
X42157335Y-138095527D01*
X38137212Y-137046189D02*
X40992082Y-135714942D01*
X27434596Y-139057781D02*
X27640286Y-138079164D01*
X35559488Y-140923893D02*
X34070431Y-140570043D01*
X42157335Y-138095527D02*
X38662065Y-139532307D01*
X28726635Y-141710258D02*
X25779608Y-143139648D01*
X27640286Y-138079164D02*
X34981379Y-134655956D01*
X34981379Y-134655956D02*
X38137212Y-137046189D01*
X38662065Y-139532307D02*
X37535044Y-140664703D01*
X34070431Y-140570043D02*
X28726635Y-141710258D01*
X37535044Y-140664703D02*
X35559488Y-140923893D01*
X24703580Y-140358859D02*
X27434596Y-139057781D01*
X43079608Y-135164648D02*
X42003580Y-132383859D01*
X58292082Y-127739942D02*
X59457335Y-130120527D01*
X55437212Y-129071189D02*
X58292082Y-127739942D01*
X44734596Y-131082781D02*
X44940286Y-130104164D01*
X52859488Y-132948893D02*
X51370431Y-132595043D01*
X59457335Y-130120527D02*
X55962065Y-131557307D01*
X46026635Y-133735258D02*
X43079608Y-135164648D01*
X44940286Y-130104164D02*
X52281379Y-126680956D01*
X52281379Y-126680956D02*
X55437212Y-129071189D01*
X55962065Y-131557307D02*
X54835044Y-132689703D01*
X51370431Y-132595043D02*
X46026635Y-133735258D01*
X54835044Y-132689703D02*
X52859488Y-132948893D01*
X42003580Y-132383859D02*
X44734596Y-131082781D01*
X178628580Y-139408859D02*
X178828580Y-136433859D01*
X195553580Y-139108859D02*
X195603580Y-141758859D01*
X192403580Y-139108859D02*
X195553580Y-139108859D01*
X181853580Y-136408859D02*
X182453580Y-135608859D01*
X188428580Y-141533859D02*
X187228580Y-140583859D01*
X195603580Y-141758859D02*
X191828580Y-141583859D01*
X181903580Y-139358859D02*
X178628580Y-139408859D01*
X182453580Y-135608859D02*
X190553580Y-135608859D01*
X190553580Y-135608859D02*
X192403580Y-139108859D01*
X191828580Y-141583859D02*
X190328580Y-142133859D01*
X187228580Y-140583859D02*
X181903580Y-139358859D01*
X190328580Y-142133859D02*
X188428580Y-141533859D01*
X178828580Y-136433859D02*
X181853580Y-136408859D01*
X159578580Y-139533859D02*
X159778580Y-136558859D01*
X176503580Y-139233859D02*
X176553580Y-141883859D01*
X173353580Y-139233859D02*
X176503580Y-139233859D01*
X162803580Y-136533859D02*
X163403580Y-135733859D01*
X169378580Y-141658859D02*
X168178580Y-140708859D01*
X176553580Y-141883859D02*
X172778580Y-141708859D01*
X162853580Y-139483859D02*
X159578580Y-139533859D01*
X163403580Y-135733859D02*
X171503580Y-135733859D01*
X171503580Y-135733859D02*
X173353580Y-139233859D01*
X172778580Y-141708859D02*
X171278580Y-142258859D01*
X168178580Y-140708859D02*
X162853580Y-139483859D01*
X171278580Y-142258859D02*
X169378580Y-141658859D01*
X159778580Y-136558859D02*
X162803580Y-136533859D01*
X140428580Y-136233859D02*
X140628580Y-133258859D01*
X157353580Y-135933859D02*
X157403580Y-138583859D01*
X154203580Y-135933859D02*
X157353580Y-135933859D01*
X143653580Y-133233859D02*
X144253580Y-132433859D01*
X150228580Y-138358859D02*
X149028580Y-137408859D01*
X157403580Y-138583859D02*
X153628580Y-138408859D01*
X143703580Y-136183859D02*
X140428580Y-136233859D01*
X144253580Y-132433859D02*
X152353580Y-132433859D01*
X152353580Y-132433859D02*
X154203580Y-135933859D01*
X153628580Y-138408859D02*
X152128580Y-138958859D01*
X149028580Y-137408859D02*
X143703580Y-136183859D01*
X152128580Y-138958859D02*
X150228580Y-138358859D01*
X140628580Y-133258859D02*
X143653580Y-133233859D01*
X121428580Y-134783859D02*
X121628580Y-131808859D01*
X138353580Y-134483859D02*
X138403580Y-137133859D01*
X135203580Y-134483859D02*
X138353580Y-134483859D01*
X124653580Y-131783859D02*
X125253580Y-130983859D01*
X131228580Y-136908859D02*
X130028580Y-135958859D01*
X138403580Y-137133859D02*
X134628580Y-136958859D01*
X124703580Y-134733859D02*
X121428580Y-134783859D01*
X125253580Y-130983859D02*
X133353580Y-130983859D01*
X133353580Y-130983859D02*
X135203580Y-134483859D01*
X134628580Y-136958859D02*
X133128580Y-137508859D01*
X130028580Y-135958859D02*
X124703580Y-134733859D01*
X133128580Y-137508859D02*
X131228580Y-136908859D01*
X121628580Y-131808859D02*
X124653580Y-131783859D01*
X102553580Y-136308859D02*
X102753580Y-133333859D01*
X119478580Y-136008859D02*
X119528580Y-138658859D01*
X116328580Y-136008859D02*
X119478580Y-136008859D01*
X105778580Y-133308859D02*
X106378580Y-132508859D01*
X112353580Y-138433859D02*
X111153580Y-137483859D01*
X119528580Y-138658859D02*
X115753580Y-138483859D01*
X105828580Y-136258859D02*
X102553580Y-136308859D01*
X106378580Y-132508859D02*
X114478580Y-132508859D01*
X114478580Y-132508859D02*
X116328580Y-136008859D01*
X115753580Y-138483859D02*
X114253580Y-139033859D01*
X111153580Y-137483859D02*
X105828580Y-136258859D01*
X114253580Y-139033859D02*
X112353580Y-138433859D01*
X102753580Y-133333859D02*
X105778580Y-133308859D01*
X83353580Y-118458859D02*
X83553580Y-115483859D01*
X100278580Y-118158859D02*
X100328580Y-120808859D01*
X97128580Y-118158859D02*
X100278580Y-118158859D01*
X86578580Y-115458859D02*
X87178580Y-114658859D01*
X93153580Y-120583859D02*
X91953580Y-119633859D01*
X100328580Y-120808859D02*
X96553580Y-120633859D01*
X86628580Y-118408859D02*
X83353580Y-118458859D01*
X87178580Y-114658859D02*
X95278580Y-114658859D01*
X95278580Y-114658859D02*
X97128580Y-118158859D01*
X96553580Y-120633859D02*
X95053580Y-121183859D01*
X91953580Y-119633859D02*
X86628580Y-118408859D01*
X95053580Y-121183859D02*
X93153580Y-120583859D01*
X83553580Y-115483859D02*
X86578580Y-115458859D01*
X102303580Y-117158859D02*
X102503580Y-114183859D01*
X119228580Y-116858859D02*
X119278580Y-119508859D01*
X116078580Y-116858859D02*
X119228580Y-116858859D01*
X105528580Y-114158859D02*
X106128580Y-113358859D01*
X112103580Y-119283859D02*
X110903580Y-118333859D01*
X119278580Y-119508859D02*
X115503580Y-119333859D01*
X105578580Y-117108859D02*
X102303580Y-117158859D01*
X106128580Y-113358859D02*
X114228580Y-113358859D01*
X114228580Y-113358859D02*
X116078580Y-116858859D01*
X115503580Y-119333859D02*
X114003580Y-119883859D01*
X110903580Y-118333859D02*
X105578580Y-117108859D01*
X114003580Y-119883859D02*
X112103580Y-119283859D01*
X102503580Y-114183859D02*
X105528580Y-114158859D01*
X121478580Y-115633859D02*
X121678580Y-112658859D01*
X138403580Y-115333859D02*
X138453580Y-117983859D01*
X135253580Y-115333859D02*
X138403580Y-115333859D01*
X124703580Y-112633859D02*
X125303580Y-111833859D01*
X131278580Y-117758859D02*
X130078580Y-116808859D01*
X138453580Y-117983859D02*
X134678580Y-117808859D01*
X124753580Y-115583859D02*
X121478580Y-115633859D01*
X125303580Y-111833859D02*
X133403580Y-111833859D01*
X133403580Y-111833859D02*
X135253580Y-115333859D01*
X134678580Y-117808859D02*
X133178580Y-118358859D01*
X130078580Y-116808859D02*
X124753580Y-115583859D01*
X133178580Y-118358859D02*
X131278580Y-117758859D01*
X121678580Y-112658859D02*
X124703580Y-112633859D01*
X159653580Y-120408859D02*
X159853580Y-117433859D01*
X176578580Y-120108859D02*
X176628580Y-122758859D01*
X173428580Y-120108859D02*
X176578580Y-120108859D01*
X162878580Y-117408859D02*
X163478580Y-116608859D01*
X169453580Y-122533859D02*
X168253580Y-121583859D01*
X176628580Y-122758859D02*
X172853580Y-122583859D01*
X162928580Y-120358859D02*
X159653580Y-120408859D01*
X163478580Y-116608859D02*
X171578580Y-116608859D01*
X171578580Y-116608859D02*
X173428580Y-120108859D01*
X172853580Y-122583859D02*
X171353580Y-123133859D01*
X168253580Y-121583859D02*
X162928580Y-120358859D01*
X171353580Y-123133859D02*
X169453580Y-122533859D01*
X159853580Y-117433859D02*
X162878580Y-117408859D01*
X183478580Y-120383859D02*
X183678580Y-117408859D01*
X200403580Y-120083859D02*
X200453580Y-122733859D01*
X197253580Y-120083859D02*
X200403580Y-120083859D01*
X186703580Y-117383859D02*
X187303580Y-116583859D01*
X193278580Y-122508859D02*
X192078580Y-121558859D01*
X200453580Y-122733859D02*
X196678580Y-122558859D01*
X186753580Y-120333859D02*
X183478580Y-120383859D01*
X187303580Y-116583859D02*
X195403580Y-116583859D01*
X195403580Y-116583859D02*
X197253580Y-120083859D01*
X196678580Y-122558859D02*
X195178580Y-123108859D01*
X192078580Y-121558859D02*
X186753580Y-120333859D01*
X195178580Y-123108859D02*
X193278580Y-122508859D01*
X183678580Y-117408859D02*
X186703580Y-117383859D01*
X183453580Y-101358859D02*
X183653580Y-98383859D01*
X200378580Y-101058859D02*
X200428580Y-103708859D01*
X197228580Y-101058859D02*
X200378580Y-101058859D01*
X186678580Y-98358859D02*
X187278580Y-97558859D01*
X193253580Y-103483859D02*
X192053580Y-102533859D01*
X200428580Y-103708859D02*
X196653580Y-103533859D01*
X186728580Y-101308859D02*
X183453580Y-101358859D01*
X187278580Y-97558859D02*
X195378580Y-97558859D01*
X195378580Y-97558859D02*
X197228580Y-101058859D01*
X196653580Y-103533859D02*
X195153580Y-104083859D01*
X192053580Y-102533859D02*
X186728580Y-101308859D01*
X195153580Y-104083859D02*
X193253580Y-103483859D01*
X183653580Y-98383859D02*
X186678580Y-98358859D01*
X159528580Y-101383859D02*
X159728580Y-98408859D01*
X176453580Y-101083859D02*
X176503580Y-103733859D01*
X173303580Y-101083859D02*
X176453580Y-101083859D01*
X162753580Y-98383859D02*
X163353580Y-97583859D01*
X169328580Y-103508859D02*
X168128580Y-102558859D01*
X176503580Y-103733859D02*
X172728580Y-103558859D01*
X162803580Y-101333859D02*
X159528580Y-101383859D01*
X163353580Y-97583859D02*
X171453580Y-97583859D01*
X171453580Y-97583859D02*
X173303580Y-101083859D01*
X172728580Y-103558859D02*
X171228580Y-104108859D01*
X168128580Y-102558859D02*
X162803580Y-101333859D01*
X171228580Y-104108859D02*
X169328580Y-103508859D01*
X159728580Y-98408859D02*
X162753580Y-98383859D01*
X140603580Y-98183859D02*
X140803580Y-95208859D01*
X157528580Y-97883859D02*
X157578580Y-100533859D01*
X154378580Y-97883859D02*
X157528580Y-97883859D01*
X143828580Y-95183859D02*
X144428580Y-94383859D01*
X150403580Y-100308859D02*
X149203580Y-99358859D01*
X157578580Y-100533859D02*
X153803580Y-100358859D01*
X143878580Y-98133859D02*
X140603580Y-98183859D01*
X144428580Y-94383859D02*
X152528580Y-94383859D01*
X152528580Y-94383859D02*
X154378580Y-97883859D01*
X153803580Y-100358859D02*
X152303580Y-100908859D01*
X149203580Y-99358859D02*
X143878580Y-98133859D01*
X152303580Y-100908859D02*
X150403580Y-100308859D01*
X140803580Y-95208859D02*
X143828580Y-95183859D01*
X121403580Y-96608859D02*
X121603580Y-93633859D01*
X138328580Y-96308859D02*
X138378580Y-98958859D01*
X135178580Y-96308859D02*
X138328580Y-96308859D01*
X124628580Y-93608859D02*
X125228580Y-92808859D01*
X131203580Y-98733859D02*
X130003580Y-97783859D01*
X138378580Y-98958859D02*
X134603580Y-98783859D01*
X124678580Y-96558859D02*
X121403580Y-96608859D01*
X125228580Y-92808859D02*
X133328580Y-92808859D01*
X133328580Y-92808859D02*
X135178580Y-96308859D01*
X134603580Y-98783859D02*
X133103580Y-99333859D01*
X130003580Y-97783859D02*
X124678580Y-96558859D01*
X133103580Y-99333859D02*
X131203580Y-98733859D01*
X121603580Y-93633859D02*
X124628580Y-93608859D01*
X102328580Y-98183859D02*
X102528580Y-95208859D01*
X119253580Y-97883859D02*
X119303580Y-100533859D01*
X116103580Y-97883859D02*
X119253580Y-97883859D01*
X105553580Y-95183859D02*
X106153580Y-94383859D01*
X112128580Y-100308859D02*
X110928580Y-99358859D01*
X119303580Y-100533859D02*
X115528580Y-100358859D01*
X105603580Y-98133859D02*
X102328580Y-98183859D01*
X106153580Y-94383859D02*
X114253580Y-94383859D01*
X114253580Y-94383859D02*
X116103580Y-97883859D01*
X115528580Y-100358859D02*
X114028580Y-100908859D01*
X110928580Y-99358859D02*
X105603580Y-98133859D01*
X114028580Y-100908859D02*
X112128580Y-100308859D01*
X102528580Y-95208859D02*
X105553580Y-95183859D01*
X83353580Y-99483859D02*
X83553580Y-96508859D01*
X100278580Y-99183859D02*
X100328580Y-101833859D01*
X97128580Y-99183859D02*
X100278580Y-99183859D01*
X86578580Y-96483859D02*
X87178580Y-95683859D01*
X93153580Y-101608859D02*
X91953580Y-100658859D01*
X100328580Y-101833859D02*
X96553580Y-101658859D01*
X86628580Y-99433859D02*
X83353580Y-99483859D01*
X87178580Y-95683859D02*
X95278580Y-95683859D01*
X95278580Y-95683859D02*
X97128580Y-99183859D01*
X96553580Y-101658859D02*
X95053580Y-102208859D01*
X91953580Y-100658859D02*
X86628580Y-99433859D01*
X95053580Y-102208859D02*
X93153580Y-101608859D01*
X83553580Y-96508859D02*
X86578580Y-96483859D01*
X83403580Y-80433859D02*
X83603580Y-77458859D01*
X100328580Y-80133859D02*
X100378580Y-82783859D01*
X97178580Y-80133859D02*
X100328580Y-80133859D01*
X86628580Y-77433859D02*
X87228580Y-76633859D01*
X93203580Y-82558859D02*
X92003580Y-81608859D01*
X100378580Y-82783859D02*
X96603580Y-82608859D01*
X86678580Y-80383859D02*
X83403580Y-80433859D01*
X87228580Y-76633859D02*
X95328580Y-76633859D01*
X95328580Y-76633859D02*
X97178580Y-80133859D01*
X96603580Y-82608859D02*
X95103580Y-83158859D01*
X92003580Y-81608859D02*
X86678580Y-80383859D01*
X95103580Y-83158859D02*
X93203580Y-82558859D01*
X83603580Y-77458859D02*
X86628580Y-77433859D01*
X102453580Y-79133859D02*
X102653580Y-76158859D01*
X119378580Y-78833859D02*
X119428580Y-81483859D01*
X116228580Y-78833859D02*
X119378580Y-78833859D01*
X105678580Y-76133859D02*
X106278580Y-75333859D01*
X112253580Y-81258859D02*
X111053580Y-80308859D01*
X119428580Y-81483859D02*
X115653580Y-81308859D01*
X105728580Y-79083859D02*
X102453580Y-79133859D01*
X106278580Y-75333859D02*
X114378580Y-75333859D01*
X114378580Y-75333859D02*
X116228580Y-78833859D01*
X115653580Y-81308859D02*
X114153580Y-81858859D01*
X111053580Y-80308859D02*
X105728580Y-79083859D01*
X114153580Y-81858859D02*
X112253580Y-81258859D01*
X102653580Y-76158859D02*
X105678580Y-76133859D01*
X121453580Y-77558859D02*
X121653580Y-74583859D01*
X138378580Y-77258859D02*
X138428580Y-79908859D01*
X135228580Y-77258859D02*
X138378580Y-77258859D01*
X124678580Y-74558859D02*
X125278580Y-73758859D01*
X131253580Y-79683859D02*
X130053580Y-78733859D01*
X138428580Y-79908859D02*
X134653580Y-79733859D01*
X124728580Y-77508859D02*
X121453580Y-77558859D01*
X125278580Y-73758859D02*
X133378580Y-73758859D01*
X133378580Y-73758859D02*
X135228580Y-77258859D01*
X134653580Y-79733859D02*
X133153580Y-80283859D01*
X130053580Y-78733859D02*
X124728580Y-77508859D01*
X133153580Y-80283859D02*
X131253580Y-79683859D01*
X121653580Y-74583859D02*
X124678580Y-74558859D01*
X140428580Y-79108859D02*
X140628580Y-76133859D01*
X157353580Y-78808859D02*
X157403580Y-81458859D01*
X154203580Y-78808859D02*
X157353580Y-78808859D01*
X143653580Y-76108859D02*
X144253580Y-75308859D01*
X150228580Y-81233859D02*
X149028580Y-80283859D01*
X157403580Y-81458859D02*
X153628580Y-81283859D01*
X143703580Y-79058859D02*
X140428580Y-79108859D01*
X144253580Y-75308859D02*
X152353580Y-75308859D01*
X152353580Y-75308859D02*
X154203580Y-78808859D01*
X153628580Y-81283859D02*
X152128580Y-81833859D01*
X149028580Y-80283859D02*
X143703580Y-79058859D01*
X152128580Y-81833859D02*
X150228580Y-81233859D01*
X140628580Y-76133859D02*
X143653580Y-76108859D01*
X159528580Y-82308859D02*
X159728580Y-79333859D01*
X176453580Y-82008859D02*
X176503580Y-84658859D01*
X173303580Y-82008859D02*
X176453580Y-82008859D01*
X162753580Y-79308859D02*
X163353580Y-78508859D01*
X169328580Y-84433859D02*
X168128580Y-83483859D01*
X176503580Y-84658859D02*
X172728580Y-84483859D01*
X162803580Y-82258859D02*
X159528580Y-82308859D01*
X163353580Y-78508859D02*
X171453580Y-78508859D01*
X171453580Y-78508859D02*
X173303580Y-82008859D01*
X172728580Y-84483859D02*
X171228580Y-85033859D01*
X168128580Y-83483859D02*
X162803580Y-82258859D01*
X171228580Y-85033859D02*
X169328580Y-84433859D01*
X159728580Y-79333859D02*
X162753580Y-79308859D01*
X183428580Y-82258859D02*
X183628580Y-79283859D01*
X200353580Y-81958859D02*
X200403580Y-84608859D01*
X197203580Y-81958859D02*
X200353580Y-81958859D01*
X186653580Y-79258859D02*
X187253580Y-78458859D01*
X193228580Y-84383859D02*
X192028580Y-83433859D01*
X200403580Y-84608859D02*
X196628580Y-84433859D01*
X186703580Y-82208859D02*
X183428580Y-82258859D01*
X187253580Y-78458859D02*
X195353580Y-78458859D01*
X195353580Y-78458859D02*
X197203580Y-81958859D01*
X196628580Y-84433859D02*
X195128580Y-84983859D01*
X192028580Y-83433859D02*
X186703580Y-82208859D01*
X195128580Y-84983859D02*
X193228580Y-84383859D01*
X183628580Y-79283859D02*
X186653580Y-79258859D01*
X183428580Y-63233859D02*
X183628580Y-60258859D01*
X200353580Y-62933859D02*
X200403580Y-65583859D01*
X197203580Y-62933859D02*
X200353580Y-62933859D01*
X186653580Y-60233859D02*
X187253580Y-59433859D01*
X193228580Y-65358859D02*
X192028580Y-64408859D01*
X200403580Y-65583859D02*
X196628580Y-65408859D01*
X186703580Y-63183859D02*
X183428580Y-63233859D01*
X187253580Y-59433859D02*
X195353580Y-59433859D01*
X195353580Y-59433859D02*
X197203580Y-62933859D01*
X196628580Y-65408859D02*
X195128580Y-65958859D01*
X192028580Y-64408859D02*
X186703580Y-63183859D01*
X195128580Y-65958859D02*
X193228580Y-65358859D01*
X183628580Y-60258859D02*
X186653580Y-60233859D01*
X159653580Y-63258859D02*
X159853580Y-60283859D01*
X176578580Y-62958859D02*
X176628580Y-65608859D01*
X173428580Y-62958859D02*
X176578580Y-62958859D01*
X162878580Y-60258859D02*
X163478580Y-59458859D01*
X169453580Y-65383859D02*
X168253580Y-64433859D01*
X176628580Y-65608859D02*
X172853580Y-65433859D01*
X162928580Y-63208859D02*
X159653580Y-63258859D01*
X163478580Y-59458859D02*
X171578580Y-59458859D01*
X171578580Y-59458859D02*
X173428580Y-62958859D01*
X172853580Y-65433859D02*
X171353580Y-65983859D01*
X168253580Y-64433859D02*
X162928580Y-63208859D01*
X171353580Y-65983859D02*
X169453580Y-65383859D01*
X159853580Y-60283859D02*
X162878580Y-60258859D01*
X140528580Y-60058859D02*
X140728580Y-57083859D01*
X157453580Y-59758859D02*
X157503580Y-62408859D01*
X154303580Y-59758859D02*
X157453580Y-59758859D01*
X143753580Y-57058859D02*
X144353580Y-56258859D01*
X150328580Y-62183859D02*
X149128580Y-61233859D01*
X157503580Y-62408859D02*
X153728580Y-62233859D01*
X143803580Y-60008859D02*
X140528580Y-60058859D01*
X144353580Y-56258859D02*
X152453580Y-56258859D01*
X152453580Y-56258859D02*
X154303580Y-59758859D01*
X153728580Y-62233859D02*
X152228580Y-62783859D01*
X149128580Y-61233859D02*
X143803580Y-60008859D01*
X152228580Y-62783859D02*
X150328580Y-62183859D01*
X140728580Y-57083859D02*
X143753580Y-57058859D01*
X121453580Y-58433859D02*
X121653580Y-55458859D01*
X138378580Y-58133859D02*
X138428580Y-60783859D01*
X135228580Y-58133859D02*
X138378580Y-58133859D01*
X124678580Y-55433859D02*
X125278580Y-54633859D01*
X131253580Y-60558859D02*
X130053580Y-59608859D01*
X138428580Y-60783859D02*
X134653580Y-60608859D01*
X124728580Y-58383859D02*
X121453580Y-58433859D01*
X125278580Y-54633859D02*
X133378580Y-54633859D01*
X133378580Y-54633859D02*
X135228580Y-58133859D01*
X134653580Y-60608859D02*
X133153580Y-61158859D01*
X130053580Y-59608859D02*
X124728580Y-58383859D01*
X133153580Y-61158859D02*
X131253580Y-60558859D01*
X121653580Y-55458859D02*
X124678580Y-55433859D01*
X102453580Y-60033859D02*
X102653580Y-57058859D01*
X119378580Y-59733859D02*
X119428580Y-62383859D01*
X116228580Y-59733859D02*
X119378580Y-59733859D01*
X105678580Y-57033859D02*
X106278580Y-56233859D01*
X112253580Y-62158859D02*
X111053580Y-61208859D01*
X119428580Y-62383859D02*
X115653580Y-62208859D01*
X105728580Y-59983859D02*
X102453580Y-60033859D01*
X106278580Y-56233859D02*
X114378580Y-56233859D01*
X114378580Y-56233859D02*
X116228580Y-59733859D01*
X115653580Y-62208859D02*
X114153580Y-62758859D01*
X111053580Y-61208859D02*
X105728580Y-59983859D01*
X114153580Y-62758859D02*
X112253580Y-62158859D01*
X102653580Y-57058859D02*
X105678580Y-57033859D01*
X83378580Y-61383859D02*
X83578580Y-58408859D01*
X100303580Y-61083859D02*
X100353580Y-63733859D01*
X97153580Y-61083859D02*
X100303580Y-61083859D01*
X86603580Y-58383859D02*
X87203580Y-57583859D01*
X93178580Y-63508859D02*
X91978580Y-62558859D01*
X100353580Y-63733859D02*
X96578580Y-63558859D01*
X86653580Y-61333859D02*
X83378580Y-61383859D01*
X87203580Y-57583859D02*
X95303580Y-57583859D01*
X95303580Y-57583859D02*
X97153580Y-61083859D01*
X96578580Y-63558859D02*
X95078580Y-64108859D01*
X91978580Y-62558859D02*
X86653580Y-61333859D01*
X95078580Y-64108859D02*
X93178580Y-63508859D01*
X83578580Y-58408859D02*
X86603580Y-58383859D01*
X64178580Y-61383859D02*
X64378580Y-58408859D01*
X67453580Y-61333859D02*
X64178580Y-61383859D01*
X72778580Y-62558859D02*
X67453580Y-61333859D01*
X73978580Y-63508859D02*
X72778580Y-62558859D01*
X75878580Y-64108859D02*
X73978580Y-63508859D01*
X77378580Y-63558859D02*
X75878580Y-64108859D01*
X81153580Y-63733859D02*
X77378580Y-63558859D01*
X81103580Y-61083859D02*
X81153580Y-63733859D01*
X77953580Y-61083859D02*
X81103580Y-61083859D01*
X76103580Y-57583859D02*
X77953580Y-61083859D01*
X68003580Y-57583859D02*
X76103580Y-57583859D01*
X67403580Y-58383859D02*
X68003580Y-57583859D01*
X64378580Y-58408859D02*
X67403580Y-58383859D01*
X182578580Y-48883859D02*
X182578580Y-45233859D01*
X186153580Y-48883859D02*
X182578580Y-48883859D01*
X186153580Y-45208859D02*
X186153580Y-48883859D01*
X182578580Y-45233859D02*
X186153580Y-45208859D01*
X188253580Y-51433859D02*
X188253580Y-49858859D01*
X191778580Y-51433859D02*
X188253580Y-51433859D01*
X191778580Y-49858859D02*
X191778580Y-51433859D01*
X188253580Y-49858859D02*
X191778580Y-49858859D01*
X173403580Y-39683859D02*
X173428580Y-38133859D01*
X176903580Y-39683859D02*
X173403580Y-39683859D01*
X176878580Y-38133859D02*
X176903580Y-39683859D01*
X173428580Y-38133859D02*
X176878580Y-38133859D01*
X93503580Y-38658859D02*
X93503580Y-37133859D01*
X96978580Y-38683859D02*
X93503580Y-38658859D01*
X96978580Y-37133859D02*
X96978580Y-38683859D01*
X93503580Y-37133859D02*
X96978580Y-37133859D01*
X78028580Y-46283859D02*
X78028580Y-47883859D01*
X81478580Y-46283859D02*
X78028580Y-46283859D01*
X81478580Y-47883859D02*
X81478580Y-46283859D01*
X78028580Y-47883859D02*
X81478580Y-47883859D01*
X77928580Y-41283859D02*
X77928580Y-44708859D01*
X79553580Y-41283859D02*
X77928580Y-41283859D01*
X79553580Y-44708859D02*
X79553580Y-41283859D01*
X77928580Y-44708859D02*
X79553580Y-44708859D01*
X77853580Y-38033859D02*
X77928580Y-34708859D01*
X79578580Y-38108859D02*
X77853580Y-38033859D01*
X79603580Y-34683859D02*
X79578580Y-38108859D01*
X77928580Y-34708859D02*
X79603580Y-34683859D01*
X114024492Y-43183859D02*
G75*
G03*
X114024492Y-43183859I-1220912J0D01*
G01*
X111466003Y-33458859D02*
G75*
G03*
X111466003Y-33458859I-1012423J0D01*
G01*
X111357980Y-40483859D02*
G75*
G03*
X111357980Y-40483859I-854400J0D01*
G01*
X85703580Y-33433859D02*
G75*
G03*
X85703580Y-33433859I-625000J0D01*
G01*
X85660065Y-40433859D02*
G75*
G03*
X85660065Y-40433859I-581485J0D01*
G01*
X83934122Y-42058859D02*
G75*
G03*
X83934122Y-42058859I-1130542J0D01*
G01*
X83875166Y-38058859D02*
G75*
G03*
X83875166Y-38058859I-1096586J0D01*
G01*
X83841595Y-35033859D02*
G75*
G03*
X83841595Y-35033859I-1063015J0D01*
G01*
X192571052Y-143033859D02*
G75*
G03*
X192571052Y-143033859I-992472J0D01*
G01*
X182364049Y-143058859D02*
G75*
G03*
X182364049Y-143058859I-960469J0D01*
G01*
X173485789Y-143033859D02*
G75*
G03*
X173485789Y-143033859I-957209J0D01*
G01*
X163362513Y-143033859D02*
G75*
G03*
X163362513Y-143033859I-983933J0D01*
G01*
X154499195Y-139858859D02*
G75*
G03*
X154499195Y-139858859I-995615J0D01*
G01*
X144243593Y-139858859D02*
G75*
G03*
X144243593Y-139858859I-965013J0D01*
G01*
X135358634Y-138258859D02*
G75*
G03*
X135358634Y-138258859I-930054J0D01*
G01*
X125276703Y-138283859D02*
G75*
G03*
X125276703Y-138283859I-998123J0D01*
G01*
X116323633Y-139833859D02*
G75*
G03*
X116323633Y-139833859I-945053J0D01*
G01*
X106220107Y-139858859D02*
G75*
G03*
X106220107Y-139858859I-991527J0D01*
G01*
X79998690Y-148258859D02*
G75*
G03*
X79998690Y-148258859I-1020110J0D01*
G01*
X84251334Y-157408859D02*
G75*
G03*
X84251334Y-157408859I-972754J0D01*
G01*
X62669161Y-156308859D02*
G75*
G03*
X62669161Y-156308859I-990581J0D01*
G01*
X66925534Y-165558859D02*
G75*
G03*
X66925534Y-165558859I-921954J0D01*
G01*
X56183695Y-175458859D02*
G75*
G03*
X56183695Y-175458859I-980115J0D01*
G01*
X47012513Y-179783859D02*
G75*
G03*
X47012513Y-179783859I-983933J0D01*
G01*
X48173690Y-158208859D02*
G75*
G03*
X48173690Y-158208859I-1020110J0D01*
G01*
X38921052Y-162508859D02*
G75*
G03*
X38921052Y-162508859I-992472J0D01*
G01*
X30888466Y-145258859D02*
G75*
G03*
X30888466Y-145258859I-984886J0D01*
G01*
X40108695Y-140933859D02*
G75*
G03*
X40108695Y-140933859I-980115J0D01*
G01*
X48174195Y-137208859D02*
G75*
G03*
X48174195Y-137208859I-995615J0D01*
G01*
X57386362Y-132908859D02*
G75*
G03*
X57386362Y-132908859I-1007782J0D01*
G01*
X73128909Y-122408859D02*
G75*
G03*
X73128909Y-122408859I-950329J0D01*
G01*
X73179861Y-112233859D02*
G75*
G03*
X73179861Y-112233859I-976281J0D01*
G01*
X87124404Y-122083859D02*
G75*
G03*
X87124404Y-122083859I-970824J0D01*
G01*
X97279861Y-122083859D02*
G75*
G03*
X97279861Y-122083859I-976281J0D01*
G01*
X106212602Y-120808859D02*
G75*
G03*
X106212602Y-120808859I-1009022J0D01*
G01*
X116388783Y-120808859D02*
G75*
G03*
X116388783Y-120808859I-985203J0D01*
G01*
X125271052Y-119208859D02*
G75*
G03*
X125271052Y-119208859I-992472J0D01*
G01*
X135428580Y-119208859D02*
G75*
G03*
X135428580Y-119208859I-1000000J0D01*
G01*
X144308695Y-120833859D02*
G75*
G03*
X144308695Y-120833859I-980115J0D01*
G01*
X154468529Y-120808859D02*
G75*
G03*
X154468529Y-120808859I-989949J0D01*
G01*
X163374195Y-123983859D02*
G75*
G03*
X163374195Y-123983859I-995615J0D01*
G01*
X173490674Y-123983859D02*
G75*
G03*
X173490674Y-123983859I-962094J0D01*
G01*
X187178909Y-124008859D02*
G75*
G03*
X187178909Y-124008859I-950329J0D01*
G01*
X197365674Y-123983859D02*
G75*
G03*
X197365674Y-123983859I-962094J0D01*
G01*
X197380552Y-104958859D02*
G75*
G03*
X197380552Y-104958859I-951972J0D01*
G01*
X187183970Y-104933859D02*
G75*
G03*
X187183970Y-104933859I-930390J0D01*
G01*
X173483695Y-104933859D02*
G75*
G03*
X173483695Y-104933859I-980115J0D01*
G01*
X163354861Y-104933859D02*
G75*
G03*
X163354861Y-104933859I-976281J0D01*
G01*
X154452297Y-101783859D02*
G75*
G03*
X154452297Y-101783859I-973717J0D01*
G01*
X144301013Y-101758859D02*
G75*
G03*
X144301013Y-101758859I-972433J0D01*
G01*
X135401013Y-100133859D02*
G75*
G03*
X135401013Y-100133859I-972433J0D01*
G01*
X125254861Y-100158859D02*
G75*
G03*
X125254861Y-100158859I-976281J0D01*
G01*
X116352297Y-101783859D02*
G75*
G03*
X116352297Y-101783859I-973717J0D01*
G01*
X106179861Y-101758859D02*
G75*
G03*
X106179861Y-101758859I-976281J0D01*
G01*
X97379494Y-102983859D02*
G75*
G03*
X97379494Y-102983859I-1025914J0D01*
G01*
X87130552Y-103008859D02*
G75*
G03*
X87130552Y-103008859I-951972J0D01*
G01*
X97299404Y-83958859D02*
G75*
G03*
X97299404Y-83958859I-970824J0D01*
G01*
X87139734Y-83983859D02*
G75*
G03*
X87139734Y-83983859I-986154J0D01*
G01*
X73188783Y-93833859D02*
G75*
G03*
X73188783Y-93833859I-985203J0D01*
G01*
X73176013Y-83658859D02*
G75*
G03*
X73176013Y-83658859I-972433J0D01*
G01*
X106219161Y-82708859D02*
G75*
G03*
X106219161Y-82708859I-990581J0D01*
G01*
X116379861Y-82708859D02*
G75*
G03*
X116379861Y-82708859I-976281J0D01*
G01*
X125218593Y-81133859D02*
G75*
G03*
X125218593Y-81133859I-965013J0D01*
G01*
X135431460Y-81083859D02*
G75*
G03*
X135431460Y-81083859I-977880J0D01*
G01*
X144283829Y-82733859D02*
G75*
G03*
X144283829Y-82733859I-955249J0D01*
G01*
X154433829Y-82708859D02*
G75*
G03*
X154433829Y-82708859I-955249J0D01*
G01*
X163351013Y-85883859D02*
G75*
G03*
X163351013Y-85883859I-972433J0D01*
G01*
X173502297Y-85908859D02*
G75*
G03*
X173502297Y-85908859I-973717J0D01*
G01*
X187211362Y-85858859D02*
G75*
G03*
X187211362Y-85858859I-1007782J0D01*
G01*
X197279968Y-85883859D02*
G75*
G03*
X197279968Y-85883859I-901388J0D01*
G01*
X197361362Y-66808859D02*
G75*
G03*
X197361362Y-66808859I-1007782J0D01*
G01*
X187245513Y-66858859D02*
G75*
G03*
X187245513Y-66858859I-1041933J0D01*
G01*
X173488783Y-66858859D02*
G75*
G03*
X173488783Y-66858859I-985203J0D01*
G01*
X163326013Y-66833859D02*
G75*
G03*
X163326013Y-66833859I-972433J0D01*
G01*
X154470107Y-63658859D02*
G75*
G03*
X154470107Y-63658859I-991527J0D01*
G01*
X144283174Y-63658859D02*
G75*
G03*
X144283174Y-63658859I-954594J0D01*
G01*
X135436362Y-62033859D02*
G75*
G03*
X135436362Y-62033859I-1007782J0D01*
G01*
X125227642Y-62083859D02*
G75*
G03*
X125227642Y-62083859I-999062J0D01*
G01*
X116344161Y-63658859D02*
G75*
G03*
X116344161Y-63658859I-990581J0D01*
G01*
X106229770Y-63658859D02*
G75*
G03*
X106229770Y-63658859I-1051190J0D01*
G01*
X97346712Y-64958859D02*
G75*
G03*
X97346712Y-64958859I-1043132J0D01*
G01*
X87159356Y-64933859D02*
G75*
G03*
X87159356Y-64933859I-1030776J0D01*
G01*
X78418535Y-64933859D02*
G75*
G03*
X78418535Y-64933859I-1114955J0D01*
G01*
X68294171Y-64883859D02*
G75*
G03*
X68294171Y-64883859I-1290591J0D01*
G01*
X90786121Y-136308859D02*
G75*
G03*
X90786121Y-136308859I-832541J0D01*
G01*
X98446408Y-136308859D02*
G75*
G03*
X98446408Y-136308859I-867828J0D01*
G01*
X98411121Y-141383859D02*
G75*
G03*
X98411121Y-141383859I-832541J0D01*
G01*
X90766753Y-141383859D02*
G75*
G03*
X90766753Y-141383859I-813173J0D01*
G01*
X53902550Y-135108859D02*
G75*
G03*
X53902550Y-135108859I-2123970J0D01*
G01*
X36734538Y-143158859D02*
G75*
G03*
X36734538Y-143158859I-2205958J0D01*
G01*
X44679609Y-160408859D02*
G75*
G03*
X44679609Y-160408859I-2126029J0D01*
G01*
X52792651Y-177683859D02*
G75*
G03*
X52792651Y-177683859I-2139071J0D01*
G01*
X65957891Y-160933859D02*
G75*
G03*
X65957891Y-160933859I-2104311J0D01*
G01*
X83287862Y-152933859D02*
G75*
G03*
X83287862Y-152933859I-2159282J0D01*
G01*
X112448487Y-139933859D02*
G75*
G03*
X112448487Y-139933859I-2144907J0D01*
G01*
X131364845Y-138283859D02*
G75*
G03*
X131364845Y-138283859I-2086265J0D01*
G01*
X150598632Y-139883859D02*
G75*
G03*
X150598632Y-139883859I-2145052J0D01*
G01*
X169571154Y-143083859D02*
G75*
G03*
X169571154Y-143083859I-2142574J0D01*
G01*
X169507253Y-123958859D02*
G75*
G03*
X169507253Y-123958859I-2128673J0D01*
G01*
X150611611Y-120858859D02*
G75*
G03*
X150611611Y-120858859I-2183031J0D01*
G01*
X131541911Y-119233859D02*
G75*
G03*
X131541911Y-119233859I-2163331J0D01*
G01*
X112393673Y-120758859D02*
G75*
G03*
X112393673Y-120758859I-2140093J0D01*
G01*
X93418235Y-122108859D02*
G75*
G03*
X93418235Y-122108859I-2139655J0D01*
G01*
X74342651Y-117358859D02*
G75*
G03*
X74342651Y-117358859I-2139071J0D01*
G01*
X93363230Y-103033859D02*
G75*
G03*
X93363230Y-103033859I-2109650J0D01*
G01*
X112448487Y-101808859D02*
G75*
G03*
X112448487Y-101808859I-2144907J0D01*
G01*
X131562862Y-100158859D02*
G75*
G03*
X131562862Y-100158859I-2159282J0D01*
G01*
X150525195Y-101783859D02*
G75*
G03*
X150525195Y-101783859I-2121615J0D01*
G01*
X169601079Y-104908859D02*
G75*
G03*
X169601079Y-104908859I-2122499J0D01*
G01*
X169461452Y-85783859D02*
G75*
G03*
X169461452Y-85783859I-2107872J0D01*
G01*
X150468556Y-82708859D02*
G75*
G03*
X150468556Y-82708859I-2114976J0D01*
G01*
X131574409Y-81133859D02*
G75*
G03*
X131574409Y-81133859I-2170829J0D01*
G01*
X112530878Y-82683859D02*
G75*
G03*
X112530878Y-82683859I-2177298J0D01*
G01*
X93373869Y-83983859D02*
G75*
G03*
X93373869Y-83983859I-2120289J0D01*
G01*
X74344295Y-88733859D02*
G75*
G03*
X74344295Y-88733859I-2115715J0D01*
G01*
X74354161Y-64933859D02*
G75*
G03*
X74354161Y-64933859I-2150581J0D01*
G01*
X93342055Y-64983859D02*
G75*
G03*
X93342055Y-64983859I-2163475J0D01*
G01*
X112416191Y-63658859D02*
G75*
G03*
X112416191Y-63658859I-2112611J0D01*
G01*
X131361795Y-62133859D02*
G75*
G03*
X131361795Y-62133859I-2058215J0D01*
G01*
X150661662Y-63658859D02*
G75*
G03*
X150661662Y-63658859I-2208082J0D01*
G01*
X169596154Y-66858859D02*
G75*
G03*
X169596154Y-66858859I-2142574J0D01*
G01*
X193479161Y-66808859D02*
G75*
G03*
X193479161Y-66808859I-2150581J0D01*
G01*
X193502430Y-85908859D02*
G75*
G03*
X193502430Y-85908859I-2173850J0D01*
G01*
X193546751Y-104908859D02*
G75*
G03*
X193546751Y-104908859I-2193171J0D01*
G01*
X193530852Y-123958859D02*
G75*
G03*
X193530852Y-123958859I-2202272J0D01*
G01*
X188690187Y-143058859D02*
G75*
G03*
X188690187Y-143058859I-2186607J0D01*
G01*
X191366595Y-151133859D02*
G75*
G03*
X191366595Y-151133859I-1063015J0D01*
G01*
X183653580Y-151158859D02*
G75*
G03*
X183653580Y-151158859I-975000J0D01*
G01*
X172316595Y-151158859D02*
G75*
G03*
X172316595Y-151158859I-1063015J0D01*
G01*
X164636362Y-151158859D02*
G75*
G03*
X164636362Y-151158859I-1007782J0D01*
G01*
X153269530Y-147983859D02*
G75*
G03*
X153269530Y-147983859I-1065950J0D01*
G01*
X145641595Y-147983859D02*
G75*
G03*
X145641595Y-147983859I-1063015J0D01*
G01*
X134214829Y-146383859D02*
G75*
G03*
X134214829Y-146383859I-1061249J0D01*
G01*
X126597910Y-146383859D02*
G75*
G03*
X126597910Y-146383859I-1044330J0D01*
G01*
X115220775Y-147983859D02*
G75*
G03*
X115220775Y-147983859I-1117195J0D01*
G01*
X107509811Y-147958859D02*
G75*
G03*
X107509811Y-147958859I-1006231J0D01*
G01*
X88015737Y-146008859D02*
G75*
G03*
X88015737Y-146008859I-1137157J0D01*
G01*
X91054861Y-152908859D02*
G75*
G03*
X91054861Y-152908859I-976281J0D01*
G01*
X70699310Y-154058859D02*
G75*
G03*
X70699310Y-154058859I-1095730J0D01*
G01*
X73937158Y-160958859D02*
G75*
G03*
X73937158Y-160958859I-1133578J0D01*
G01*
X58513592Y-183383859D02*
G75*
G03*
X58513592Y-183383859I-1035012J0D01*
G01*
X51574195Y-186583859D02*
G75*
G03*
X51574195Y-186583859I-995615J0D01*
G01*
X50507063Y-166108859D02*
G75*
G03*
X50507063Y-166108859I-1078483J0D01*
G01*
X43557232Y-169333859D02*
G75*
G03*
X43557232Y-169333859I-1028652J0D01*
G01*
X35522910Y-152083859D02*
G75*
G03*
X35522910Y-152083859I-1044330J0D01*
G01*
X42543966Y-148858859D02*
G75*
G03*
X42543966Y-148858859I-1165386J0D01*
G01*
X52782232Y-144033859D02*
G75*
G03*
X52782232Y-144033859I-1028652J0D01*
G01*
X59628580Y-140808859D02*
G75*
G03*
X59628580Y-140808859I-1000000J0D01*
G01*
X81325301Y-121133859D02*
G75*
G03*
X81325301Y-121133859I-1046721J0D01*
G01*
X81364535Y-113508859D02*
G75*
G03*
X81364535Y-113508859I-1060955J0D01*
G01*
X88459356Y-130208859D02*
G75*
G03*
X88459356Y-130208859I-1030776J0D01*
G01*
X96169656Y-130233859D02*
G75*
G03*
X96169656Y-130233859I-1116076J0D01*
G01*
X107509356Y-128933859D02*
G75*
G03*
X107509356Y-128933859I-1030776J0D01*
G01*
X115266819Y-128958859D02*
G75*
G03*
X115266819Y-128958859I-1163239J0D01*
G01*
X126564497Y-127358859D02*
G75*
G03*
X126564497Y-127358859I-1035917J0D01*
G01*
X134307920Y-127358859D02*
G75*
G03*
X134307920Y-127358859I-1154340J0D01*
G01*
X145652985Y-128933859D02*
G75*
G03*
X145652985Y-128933859I-1049405J0D01*
G01*
X153458819Y-128958859D02*
G75*
G03*
X153458819Y-128958859I-1255239J0D01*
G01*
X164708221Y-132133859D02*
G75*
G03*
X164708221Y-132133859I-1079641J0D01*
G01*
X172384122Y-132108859D02*
G75*
G03*
X172384122Y-132108859I-1130542J0D01*
G01*
X188610942Y-132108859D02*
G75*
G03*
X188610942Y-132108859I-1107362J0D01*
G01*
X196376829Y-132108859D02*
G75*
G03*
X196376829Y-132108859I-1248249J0D01*
G01*
X196324929Y-113058859D02*
G75*
G03*
X196324929Y-113058859I-1196349J0D01*
G01*
X188509189Y-113058859D02*
G75*
G03*
X188509189Y-113058859I-1005609J0D01*
G01*
X172433622Y-113058859D02*
G75*
G03*
X172433622Y-113058859I-1180042J0D01*
G01*
X164724310Y-113058859D02*
G75*
G03*
X164724310Y-113058859I-1095730J0D01*
G01*
X153441522Y-109883859D02*
G75*
G03*
X153441522Y-109883859I-1237942J0D01*
G01*
X145625301Y-109883859D02*
G75*
G03*
X145625301Y-109883859I-1046721J0D01*
G01*
X134395554Y-108283859D02*
G75*
G03*
X134395554Y-108283859I-1241974J0D01*
G01*
X126613995Y-108258859D02*
G75*
G03*
X126613995Y-108258859I-1085415J0D01*
G01*
X115341522Y-109883859D02*
G75*
G03*
X115341522Y-109883859I-1237942J0D01*
G01*
X107506320Y-109883859D02*
G75*
G03*
X107506320Y-109883859I-1027740J0D01*
G01*
X96256181Y-111133859D02*
G75*
G03*
X96256181Y-111133859I-1202601J0D01*
G01*
X88437602Y-111158859D02*
G75*
G03*
X88437602Y-111158859I-1009022J0D01*
G01*
X81373627Y-92558859D02*
G75*
G03*
X81373627Y-92558859I-1070047J0D01*
G01*
X81497447Y-84958859D02*
G75*
G03*
X81497447Y-84958859I-1168867J0D01*
G01*
X88436362Y-92108859D02*
G75*
G03*
X88436362Y-92108859I-1007782J0D01*
G01*
X96276537Y-92083859D02*
G75*
G03*
X96276537Y-92083859I-1222957J0D01*
G01*
X107471052Y-90833859D02*
G75*
G03*
X107471052Y-90833859I-992472J0D01*
G01*
X115347063Y-90833859D02*
G75*
G03*
X115347063Y-90833859I-1243483J0D01*
G01*
X126572910Y-89233859D02*
G75*
G03*
X126572910Y-89233859I-1044330J0D01*
G01*
X134393036Y-89233859D02*
G75*
G03*
X134393036Y-89233859I-1239456J0D01*
G01*
X145573690Y-90833859D02*
G75*
G03*
X145573690Y-90833859I-1020110J0D01*
G01*
X153438489Y-90808859D02*
G75*
G03*
X153438489Y-90808859I-1234909J0D01*
G01*
X164638783Y-94008859D02*
G75*
G03*
X164638783Y-94008859I-985203J0D01*
G01*
X172527859Y-94033859D02*
G75*
G03*
X172527859Y-94033859I-1299279J0D01*
G01*
X188620775Y-94008859D02*
G75*
G03*
X188620775Y-94008859I-1117195J0D01*
G01*
X196428820Y-94008859D02*
G75*
G03*
X196428820Y-94008859I-1300240J0D01*
G01*
X196403335Y-74958859D02*
G75*
G03*
X196403335Y-74958859I-1274755J0D01*
G01*
X188643755Y-74983859D02*
G75*
G03*
X188643755Y-74983859I-1140175J0D01*
G01*
X172530784Y-74958859D02*
G75*
G03*
X172530784Y-74958859I-1277204J0D01*
G01*
X164781023Y-74958859D02*
G75*
G03*
X164781023Y-74958859I-1152443J0D01*
G01*
X153424236Y-71783859D02*
G75*
G03*
X153424236Y-71783859I-1220656J0D01*
G01*
X145660245Y-71783859D02*
G75*
G03*
X145660245Y-71783859I-1081665J0D01*
G01*
X134395554Y-70183859D02*
G75*
G03*
X134395554Y-70183859I-1241974J0D01*
G01*
X126603871Y-70208859D02*
G75*
G03*
X126603871Y-70208859I-1075291J0D01*
G01*
X115330874Y-71783859D02*
G75*
G03*
X115330874Y-71783859I-1227294J0D01*
G01*
X107568591Y-71783859D02*
G75*
G03*
X107568591Y-71783859I-1090011J0D01*
G01*
X96284687Y-73058859D02*
G75*
G03*
X96284687Y-73058859I-1231107J0D01*
G01*
X88584272Y-73058859D02*
G75*
G03*
X88584272Y-73058859I-1155692J0D01*
G01*
X77223467Y-73033859D02*
G75*
G03*
X77223467Y-73033859I-1219887J0D01*
G01*
X69460245Y-73083859D02*
G75*
G03*
X69460245Y-73083859I-1081665J0D01*
G01*
X132353580Y-42108859D02*
X132353580Y-44558859D01*
X150028580Y-42158859D02*
X132353580Y-42108859D01*
X150028580Y-44508859D02*
X150028580Y-42158859D01*
X132353580Y-44558859D02*
X150028580Y-44508859D01*
X65948007Y-50858859D02*
G75*
G03*
X65948007Y-50858859I-894427J0D01*
G01*
X71148997Y-50833859D02*
G75*
G03*
X71148997Y-50833859I-1020417J0D01*
G01*
X66009014Y-43208859D02*
G75*
G03*
X66009014Y-43208859I-980434J0D01*
G01*
X71032046Y-43233859D02*
G75*
G03*
X71032046Y-43233859I-903466J0D01*
G01*
X76528580Y-38833859D02*
X76503580Y-34133859D01*
X74228580Y-38833859D02*
X76528580Y-38833859D01*
X74228580Y-34133859D02*
X74228580Y-38833859D01*
X76503580Y-34133859D02*
X74228580Y-34133859D01*
X74203580Y-40583859D02*
X74228580Y-45333859D01*
X76553580Y-40583859D02*
X74203580Y-40583859D01*
X76553580Y-45333859D02*
X76553580Y-40583859D01*
X74228580Y-45333859D02*
X76553580Y-45333859D01*
X74128580Y-51508859D02*
X74178580Y-46858859D01*
X76528580Y-51508859D02*
X74128580Y-51508859D01*
X76553580Y-46858859D02*
X76528580Y-51508859D01*
X74178580Y-46858859D02*
X76553580Y-46858859D01*
X86603580Y-42183859D02*
X86578580Y-44108859D01*
X88153580Y-42183859D02*
X86603580Y-42183859D01*
X88153580Y-44108859D02*
X88153580Y-42183859D01*
X86578580Y-44108859D02*
X88153580Y-44108859D01*
X105128580Y-39683859D02*
X105153580Y-41283859D01*
X106678580Y-39683859D02*
X105128580Y-39683859D01*
X106678580Y-41283859D02*
X106678580Y-39683859D01*
X105153580Y-41283859D02*
X106678580Y-41283859D01*
X107428580Y-43033859D02*
X107428580Y-43058859D01*
X107453580Y-34008859D02*
X107428580Y-43033859D01*
X109028580Y-34008859D02*
X107453580Y-34008859D01*
X108978580Y-43058859D02*
X109028580Y-34008859D01*
X107428580Y-43058859D02*
X108978580Y-43058859D01*
X106478580Y-34008859D02*
X106453580Y-32958859D01*
X105278580Y-34008859D02*
X106478580Y-34008859D01*
X105278580Y-32958859D02*
X105278580Y-34008859D01*
X106453580Y-32958859D02*
X105278580Y-32958859D01*
X198303580Y-41233859D02*
X201053580Y-41258859D01*
X198228580Y-51458859D02*
X198303580Y-41233859D01*
X201053580Y-51458859D02*
X201053580Y-41258859D01*
X198228580Y-51458859D02*
X201053580Y-51458859D01*
X193228580Y-51258859D02*
X195928580Y-51283859D01*
X193228580Y-45683859D02*
X193228580Y-51258859D01*
X195878580Y-45683859D02*
X193228580Y-45683859D01*
X195928580Y-51283859D02*
X195878580Y-45683859D01*
X177928580Y-41958859D02*
X178028580Y-44508859D01*
X190603580Y-42008859D02*
X177928580Y-41958859D01*
X190603580Y-44508859D02*
X190603580Y-42008859D01*
X178028580Y-44508859D02*
X190603580Y-44508859D01*
X62304648Y-121561748D02*
G75*
G03*
X62304648Y-121561748I-2850000J0D01*
G01*
X56518528Y-165729808D02*
G75*
G03*
X56518528Y-165729808I-2850000J0D01*
G01*
X108080528Y-157634628D02*
G75*
G03*
X108080528Y-157634628I-2850000J0D01*
G01*
X204439239Y-139915051D02*
G75*
G03*
X204439239Y-139915051I-2850000J0D01*
G01*
X141676000Y-91459200D02*
G75*
G03*
X141676000Y-91459200I-2850000J0D01*
G01*
X203779000Y-36887848D02*
G75*
G03*
X203779000Y-36887848I-2850000J0D01*
G01*
X120846568Y-37022928D02*
G75*
G03*
X120846568Y-37022928I-2850000J0D01*
G01*
X70049108Y-37063368D02*
G75*
G03*
X70049108Y-37063368I-2850000J0D01*
G01*
X21253580Y-138008859D02*
X45353580Y-189208859D01*
X22553580Y-135908859D02*
X21253580Y-138008859D01*
X62353580Y-115608859D02*
X22553580Y-135908859D01*
X62353580Y-35308859D02*
X62353580Y-115608859D01*
X65553580Y-32108859D02*
X62353580Y-35308859D01*
X202453580Y-32108859D02*
X65553580Y-32108859D01*
X205653580Y-35308859D02*
X202453580Y-32108859D01*
X205653580Y-143308859D02*
X205653580Y-35308859D01*
X196153580Y-152708859D02*
X205653580Y-143308859D01*
X126953580Y-152708859D02*
X196153580Y-152708859D01*
X48153580Y-189208859D02*
X126953580Y-152708859D01*
X45353580Y-189208859D02*
X48153580Y-189208859D01*
M02*
